<svg width="40" height="40" viewBox="0 0 40 40" fill="none" xmlns="http://www.w3.org/2000/svg">
<circle cx="20" cy="20" r="20" fill="#53889D"/>
<path fill-rule="evenodd" clip-rule="evenodd" d="M29.4995 12.196L30.9732 12.3681L30.3108 13.6958C29.9877 14.3432 29.6644 14.9906 29.3407 15.638C29.3023 15.7751 29.2348 15.8954 29.1351 16.0519C29.0934 16.1173 28.951 16.3253 28.9443 16.3353C28.9067 16.3917 28.8789 16.4361 28.8589 16.4718V18.9598C28.8589 25.3265 22.6974 29.3722 16.8787 29.3722C15.688 29.3722 14.7834 29.3152 13.7475 29.0891C12.0429 28.7171 10.7742 27.9777 10.1937 26.6853L9.59605 25.3548L11.0485 25.2212C12.3625 25.1004 13.5018 24.85 14.3767 24.5148C11.9748 24.1286 10.6288 23.0737 10.6288 21.0925V20.0508H11.6704C11.8993 20.0508 12.1057 20.0323 12.2902 19.9982C10.4875 18.9204 9.58461 17.1914 9.58461 14.7932C9.58441 14.691 9.58441 14.691 9.58379 14.5817C9.57702 13.3729 9.64195 12.727 9.97286 11.9026C10.1849 11.3743 10.4915 10.8852 10.9041 10.4371L11.6901 9.58325L12.4543 10.4567C14.9729 13.3349 17.4624 15.0811 20.0043 15.2923C20.0152 12.6364 22.0224 10.6265 24.692 10.6265C25.9365 10.6265 27.0654 11.0989 27.9526 11.9507C28.4381 12.0504 28.9538 12.1323 29.4995 12.196ZM27.1965 13.9187L26.8772 13.8464L26.6566 13.6044C26.1234 13.0192 25.4541 12.7098 24.692 12.7098C23.1681 12.7098 22.0876 13.7957 22.0876 15.314C22.0876 15.5621 22.0812 15.7181 22.0503 15.923C21.927 16.7407 21.4683 17.3973 20.5251 17.3973C17.4022 17.3973 14.5847 15.7243 11.8374 12.8669C11.6958 13.2974 11.6624 13.74 11.6671 14.57C11.6677 14.681 11.6677 14.681 11.6679 14.7932C11.6679 16.9265 12.5322 18.0934 14.5786 18.7439L15.3047 18.9747V19.7366C15.3047 20.6605 14.4294 21.5303 13.1486 21.9198C13.7357 22.3653 14.9365 22.6057 16.8791 22.6057H17.9207V23.6473C17.9207 25.1398 16.2059 26.3083 13.6154 26.9185C14.4602 27.1774 15.5851 27.2889 16.8787 27.2889C21.6854 27.2889 26.7755 23.9466 26.7755 18.9598V16.3557C26.7755 16.0496 26.8642 15.784 27.0116 15.5078C27.0692 15.3998 27.1327 15.2969 27.211 15.1795C27.2257 15.1574 27.2804 15.0773 27.3238 15.0132L27.4064 14.8481C27.5402 14.5806 27.6739 14.3131 27.8076 14.0455C27.5998 14.0062 27.3961 13.9639 27.1965 13.9187Z" fill="white"/>
</svg>
