<svg width="48" height="48" viewBox="0 0 48 48" fill="none" xmlns="http://www.w3.org/2000/svg">
<g filter="url(#filter0_d_12_48)">
<circle cx="24" cy="20" r="20" fill="#53889D"/>
<path fill-rule="evenodd" clip-rule="evenodd" d="M33.4995 12.196L34.9732 12.3681L34.3108 13.6958C33.9877 14.3432 33.6644 14.9906 33.3407 15.638C33.3023 15.7751 33.2348 15.8954 33.1351 16.0519C33.0934 16.1173 32.951 16.3253 32.9443 16.3353C32.9067 16.3917 32.8789 16.4361 32.8589 16.4718V18.9598C32.8589 25.3265 26.6974 29.3722 20.8787 29.3722C19.688 29.3722 18.7834 29.3152 17.7475 29.0891C16.0429 28.7171 14.7742 27.9777 14.1937 26.6853L13.5961 25.3548L15.0485 25.2212C16.3625 25.1004 17.5018 24.85 18.3767 24.5148C15.9748 24.1286 14.6288 23.0737 14.6288 21.0925V20.0508H15.6704C15.8993 20.0508 16.1057 20.0323 16.2902 19.9982C14.4875 18.9204 13.5846 17.1914 13.5846 14.7932C13.5844 14.691 13.5844 14.691 13.5838 14.5817C13.577 13.3729 13.642 12.727 13.9729 11.9026C14.1849 11.3743 14.4915 10.8852 14.9041 10.4371L15.6901 9.58325L16.4543 10.4567C18.9729 13.3349 21.4624 15.0811 24.0043 15.2923C24.0152 12.6364 26.0224 10.6265 28.692 10.6265C29.9365 10.6265 31.0654 11.0989 31.9526 11.9507C32.4381 12.0504 32.9538 12.1323 33.4995 12.196ZM31.1965 13.9187L30.8772 13.8464L30.6566 13.6044C30.1234 13.0192 29.4541 12.7098 28.692 12.7098C27.1681 12.7098 26.0876 13.7957 26.0876 15.314C26.0876 15.5621 26.0812 15.7181 26.0503 15.923C25.927 16.7407 25.4683 17.3973 24.5251 17.3973C21.4022 17.3973 18.5847 15.7243 15.8374 12.8669C15.6958 13.2974 15.6624 13.74 15.6671 14.57C15.6677 14.681 15.6677 14.681 15.6679 14.7932C15.6679 16.9265 16.5322 18.0934 18.5786 18.7439L19.3047 18.9747V19.7366C19.3047 20.6605 18.4294 21.5303 17.1486 21.9198C17.7357 22.3653 18.9365 22.6057 20.8791 22.6057H21.9207V23.6473C21.9207 25.1398 20.2059 26.3083 17.6154 26.9185C18.4602 27.1774 19.5851 27.2889 20.8787 27.2889C25.6854 27.2889 30.7755 23.9466 30.7755 18.9598V16.3557C30.7755 16.0496 30.8642 15.784 31.0116 15.5078C31.0692 15.3998 31.1327 15.2969 31.211 15.1795C31.2257 15.1574 31.2804 15.0773 31.3238 15.0132L31.4064 14.8481C31.5402 14.5806 31.6739 14.3131 31.8075 14.0455C31.5998 14.0062 31.3961 13.9639 31.1965 13.9187Z" fill="white"/>
</g>
<defs>
<filter id="filter0_d_12_48" x="0" y="0" width="48" height="48" filterUnits="userSpaceOnUse" color-interpolation-filters="sRGB">
<feFlood flood-opacity="0" result="BackgroundImageFix"/>
<feColorMatrix in="SourceAlpha" type="matrix" values="0 0 0 0 0 0 0 0 0 0 0 0 0 0 0 0 0 0 127 0" result="hardAlpha"/>
<feOffset dy="4"/>
<feGaussianBlur stdDeviation="2"/>
<feComposite in2="hardAlpha" operator="out"/>
<feColorMatrix type="matrix" values="0 0 0 0 0 0 0 0 0 0 0 0 0 0 0 0 0 0 0.25 0"/>
<feBlend mode="normal" in2="BackgroundImageFix" result="effect1_dropShadow_12_48"/>
<feBlend mode="normal" in="SourceGraphic" in2="effect1_dropShadow_12_48" result="shape"/>
</filter>
</defs>
</svg>
